<svg width="20" height="20" viewBox="0 0 20 20" fill="none" xmlns="http://www.w3.org/2000/svg">
<path fill-rule="evenodd" clip-rule="evenodd" d="M6.3651 3.19442L13.6345 3.19442C14.1979 3.19441 14.6544 3.19441 15.0245 3.22465C15.4063 3.25584 15.7448 3.32195 16.059 3.48204C16.5555 3.73504 16.9592 4.13874 17.2122 4.63528C17.3723 4.94947 17.4384 5.28798 17.4696 5.66974C17.4998 6.03984 17.4998 6.49632 17.4998 7.05964V12.9403C17.4998 13.5036 17.4998 13.9601 17.4696 14.3302C17.4384 14.712 17.3723 15.0505 17.2122 15.3647C16.9592 15.8612 16.5555 16.2649 16.059 16.5179C15.7448 16.678 15.4063 16.7441 15.0245 16.7753C14.6544 16.8055 14.1979 16.8055 13.6346 16.8055H6.36511C5.80175 16.8055 5.34525 16.8055 4.97514 16.7753C4.59338 16.7441 4.25487 16.678 3.94068 16.5179C3.44414 16.2649 3.04044 15.8612 2.78744 15.3647C2.62735 15.0505 2.56124 14.712 2.53005 14.3302C2.49981 13.9601 2.49981 13.5036 2.49982 12.9402L2.49982 7.91705C2.49982 7.91691 2.49982 7.91718 2.49982 7.91705C2.49982 7.91691 2.49982 7.91636 2.49982 7.91623L2.49982 7.0597C2.49981 6.49635 2.49981 6.03985 2.53005 5.66974C2.56124 5.28798 2.62735 4.94947 2.78744 4.63527C3.04044 4.13874 3.44414 3.73504 3.94068 3.48204C4.25487 3.32195 4.59338 3.25584 4.97514 3.22464C5.34525 3.19441 5.80175 3.19441 6.3651 3.19442ZM3.61093 8.47219L3.61093 12.9166C3.61093 13.5092 3.61136 13.9202 3.63747 14.2397C3.66304 14.5528 3.71047 14.7288 3.77745 14.8602C3.92392 15.1477 4.15764 15.3814 4.44511 15.5279C4.57656 15.5949 4.75257 15.6423 5.06562 15.6679C5.38515 15.694 5.79615 15.6944 6.3887 15.6944H13.6109C14.2035 15.6944 14.6145 15.694 14.934 15.6679C15.2471 15.6423 15.4231 15.5949 15.5545 15.5279C15.842 15.3814 16.0757 15.1477 16.2222 14.8602C16.2892 14.7288 16.3366 14.5528 16.3622 14.2397C16.3883 13.9202 16.3887 13.5092 16.3887 12.9166V8.47219H3.61093ZM16.3887 7.36108H3.61093V7.08331C3.61093 6.49075 3.61136 6.07975 3.63747 5.76022C3.66304 5.44717 3.71047 5.27116 3.77745 5.13971C3.92392 4.85224 4.15764 4.61852 4.44511 4.47204C4.57656 4.40507 4.75257 4.35764 5.06562 4.33207C5.38515 4.30596 5.79615 4.30553 6.38871 4.30553L13.6109 4.30553C14.2035 4.30553 14.6145 4.30596 14.934 4.33207C15.2471 4.35764 15.4231 4.40507 15.5545 4.47205C15.842 4.61852 16.0757 4.85224 16.2222 5.13971C16.2892 5.27116 16.3366 5.44717 16.3622 5.76022C16.3883 6.07975 16.3887 6.49075 16.3887 7.08331V7.36108Z" fill="#3A7CFD"/>
</svg>
