<svg width="20" height="20" viewBox="0 0 20 20" fill="none" xmlns="http://www.w3.org/2000/svg">
<path fill-rule="evenodd" clip-rule="evenodd" d="M4.99967 4.50027C3.80306 4.50027 2.83301 5.47032 2.83301 6.66694V13.3336C2.83301 14.5302 3.80306 15.5003 4.99967 15.5003H14.9997C16.1963 15.5003 17.1663 14.5302 17.1663 13.3336V6.66694C17.1663 5.47032 16.1963 4.50027 14.9997 4.50027H4.99967ZM4.11934 5.90133C4.33323 5.6556 4.64831 5.50027 4.99967 5.50027H14.9997C15.3511 5.50027 15.6662 5.65561 15.88 5.90136L9.99971 10.2136L4.11934 5.90133ZM3.83301 6.93143V13.3336C3.83301 13.9779 4.35534 14.5003 4.99967 14.5003H14.9997C15.644 14.5003 16.1663 13.9779 16.1663 13.3336V6.93148L10.2954 11.2368C10.1194 11.3659 9.88002 11.3659 9.70403 11.2368L3.83301 6.93143Z" fill="#3A7CFD"/>
</svg>
