<svg width="20" height="20" viewBox="0 0 20 20" fill="none" xmlns="http://www.w3.org/2000/svg">
<path fill-rule="evenodd" clip-rule="evenodd" d="M5.49998 7.33333C5.49998 4.84805 7.5147 2.83333 9.99998 2.83333C12.4853 2.83333 14.5 4.84805 14.5 7.33333C14.5 8.89288 13.628 10.0161 12.7357 10.9455C12.5203 11.1698 12.2982 11.3882 12.0835 11.5994L12.0557 11.6268C11.8304 11.8484 11.6137 12.0621 11.4096 12.2772C10.9992 12.7097 10.6642 13.123 10.4472 13.5569C10.3625 13.7263 10.1894 13.8333 9.99998 13.8333C9.81059 13.8333 9.63746 13.7263 9.55277 13.5569C9.33577 13.123 9.00073 12.7097 8.59041 12.2772C8.38629 12.0621 8.1696 11.8484 7.94429 11.6268L7.91644 11.5994C7.70173 11.3882 7.47965 11.1698 7.26431 10.9455C6.37191 10.0161 5.49998 8.89288 5.49998 7.33333ZM9.99998 7.16667C9.90793 7.16667 9.83331 7.24129 9.83331 7.33333C9.83331 7.42538 9.90793 7.5 9.99998 7.5C10.092 7.5 10.1666 7.42538 10.1666 7.33333C10.1666 7.24129 10.092 7.16667 9.99998 7.16667ZM8.83331 7.33333C8.83331 6.689 9.35565 6.16667 9.99998 6.16667C10.6443 6.16667 11.1666 6.689 11.1666 7.33333C11.1666 7.97767 10.6443 8.5 9.99998 8.5C9.35565 8.5 8.83331 7.97767 8.83331 7.33333ZM5.79078 11.3224C5.90223 11.5751 5.78777 11.8702 5.53512 11.9817C4.95661 12.2369 4.51877 12.5295 4.23237 12.8299C3.94842 13.1278 3.83331 13.4098 3.83331 13.6667C3.83331 14.1758 4.31599 14.8032 5.49112 15.332C6.61931 15.8397 8.21299 16.1667 9.99998 16.1667C11.787 16.1667 13.3806 15.8397 14.5088 15.332C15.684 14.8032 16.1666 14.1758 16.1666 13.6667C16.1666 13.4098 16.0515 13.1278 15.7676 12.8299C15.4812 12.5295 15.0434 12.2369 14.4648 11.9817C14.2122 11.8702 14.0977 11.5751 14.2092 11.3224C14.3206 11.0698 14.6158 10.9553 14.8685 11.0668C15.5242 11.356 16.0863 11.715 16.4914 12.1399C16.8989 12.5674 17.1666 13.0843 17.1666 13.6667C17.1666 14.8144 16.1569 15.687 14.9192 16.2439C13.6345 16.822 11.8949 17.1667 9.99998 17.1667C8.10507 17.1667 6.36541 16.822 5.08075 16.2439C3.84302 15.687 2.83331 14.8144 2.83331 13.6667C2.83331 13.0843 3.10109 12.5674 3.50857 12.1399C3.91361 11.715 4.47578 11.356 5.13151 11.0668C5.38416 10.9553 5.67932 11.0698 5.79078 11.3224Z" fill="#C8CBE7"/>
</svg>
