<svg width="20" height="20" viewBox="0 0 20 20" fill="none" xmlns="http://www.w3.org/2000/svg">
<path d="M6.75294 13.2148C8.98722 15.4455 11.7085 17.1667 13.9273 17.1667C14.9246 17.1667 15.7982 16.8193 16.5018 16.0475C16.9114 15.5921 17.1666 15.0595 17.1666 14.5346C17.1666 14.1487 17.0197 13.7782 16.6486 13.5158L14.2829 11.8332C13.9196 11.5862 13.6181 11.4627 13.3398 11.4627C12.9841 11.4627 12.6749 11.6634 12.3193 12.0107L11.7704 12.551C11.6853 12.6359 11.5771 12.6745 11.4766 12.6745C11.3529 12.6745 11.2447 12.6282 11.1596 12.5896C10.688 12.3348 9.86853 11.6325 9.10317 10.8761C8.34552 10.1196 7.642 9.30147 7.39461 8.82293C7.34823 8.73803 7.30957 8.62994 7.30957 8.51419C7.30957 8.41384 7.34051 8.3135 7.42555 8.2286L7.96671 7.66515C8.31461 7.31008 8.51559 7.00133 8.51559 6.64629C8.51559 6.36844 8.39193 6.0674 8.13678 5.70465L6.4746 3.36592C6.20402 2.99543 5.82521 2.83333 5.40775 2.83333C4.89749 2.83333 4.36405 3.06488 3.91564 3.50486C3.16574 4.22269 2.83331 5.11032 2.83331 6.09055C2.83331 8.30579 4.5264 10.9918 6.75294 13.2148Z" fill="#C8CBE7"/>
</svg>
